<svg width="140" height="140" viewBox="0 0 140 140" fill="none" xmlns="http://www.w3.org/2000/svg">
<path d="M103.723 47.3516C108.697 47.3516 112.742 43.3064 112.742 38.3323C112.742 36.6141 112.235 35.0222 111.396 33.6557L126.352 16.8301C127.667 17.5765 129.164 18.0387 130.781 18.0387C135.755 18.0387 139.8 13.9935 139.8 9.01936C139.8 4.04518 135.755 0 130.781 0C125.806 0 121.761 4.04518 121.761 9.01936C121.761 10.7375 122.269 12.3295 123.107 13.6959L108.151 30.5215C106.837 29.7751 105.339 29.3129 103.723 29.3129C100.498 29.3129 97.6886 31.0243 96.0922 33.5746L87.7583 31.7233C87.8643 30.9319 87.9387 30.1314 87.9387 29.3129C87.9387 19.3668 79.8461 11.2742 69.9 11.2742C62.3508 11.2742 55.8794 15.9417 53.1939 22.5371L47.2163 21.209C46.5624 16.873 42.8487 13.529 38.3323 13.529C33.3581 13.529 29.3129 17.5742 29.3129 22.5484C29.3129 23.2519 29.4121 23.9306 29.5654 24.589L15.6801 32.3028C14.0296 30.4809 11.6688 29.3129 9.01935 29.3129C4.04518 29.3129 0 33.3581 0 38.3323C0 43.3064 4.04518 47.3516 9.01935 47.3516C13.9935 47.3516 18.0387 43.3064 18.0387 38.3323C18.0387 37.6288 17.9395 36.95 17.7862 36.2916L31.6715 28.5778C33.322 30.3997 35.6828 31.5677 38.3323 31.5677C42.1835 31.5677 45.453 29.1303 46.7451 25.7255L52.0417 26.9025C51.9357 27.6939 51.8613 28.4944 51.8613 29.3129C51.8613 39.259 59.9539 47.3516 69.9 47.3516C77.4492 47.3516 83.9206 42.6841 86.6061 36.0887L94.7461 37.8971C94.7393 38.0436 94.7032 38.1834 94.7032 38.3323C94.7032 43.3064 98.7484 47.3516 103.723 47.3516ZM130.781 4.50968C133.268 4.50968 135.29 6.53452 135.29 9.01936C135.29 11.5042 133.268 13.529 130.781 13.529C128.294 13.529 126.271 11.5042 126.271 9.01936C126.271 6.53452 128.294 4.50968 130.781 4.50968ZM103.723 33.8226C106.21 33.8226 108.232 35.8452 108.232 38.3323C108.232 40.8194 106.21 42.8419 103.723 42.8419C101.235 42.8419 99.2129 40.8194 99.2129 38.3323C99.2129 35.8452 101.235 33.8226 103.723 33.8226ZM9.01935 42.8419C6.53452 42.8419 4.50968 40.8194 4.50968 38.3323C4.50968 35.8452 6.53452 33.8226 9.01935 33.8226C11.5042 33.8226 13.529 35.8452 13.529 38.3323C13.529 40.8194 11.5042 42.8419 9.01935 42.8419ZM42.4293 24.4086C41.7168 25.9667 40.1542 27.0581 38.3323 27.0581C35.8452 27.0581 33.8226 25.0332 33.8226 22.5484C33.8226 20.0636 35.8452 18.0387 38.3323 18.0387C40.8193 18.0387 42.8419 20.0636 42.8419 22.5484L42.4293 24.4086ZM69.9 42.8419C62.4387 42.8419 56.371 36.7742 56.371 29.3129C56.371 28.8304 56.398 28.3523 56.4476 27.8833L60.9235 28.8777C60.9167 29.0243 60.8806 29.1641 60.8806 29.3129C60.8806 34.2871 64.9258 38.3323 69.9 38.3323C73.1244 38.3323 75.9339 36.6208 77.5304 34.0706L82.1167 35.0898C79.943 39.6649 75.2913 42.8419 69.9 42.8419ZM65.3903 29.3129C65.3903 26.8281 67.4129 24.8032 69.9 24.8032C72.3871 24.8032 74.4097 26.8281 74.4097 29.3129C74.4097 31.7977 72.3871 33.8226 69.9 33.8226C67.4129 33.8226 65.3903 31.7977 65.3903 29.3129ZM83.3524 30.7425L78.8765 29.7481C78.8833 29.6015 78.9194 29.4617 78.9194 29.3129C78.9194 24.3387 74.8742 20.2936 69.9 20.2936C66.6756 20.2936 63.8638 22.005 62.2696 24.5552L57.6855 23.536C59.8569 18.9609 64.5087 15.7839 69.9 15.7839C77.3613 15.7839 83.429 21.8516 83.429 29.3129C83.429 29.7954 83.402 30.2735 83.3524 30.7425Z" fill="#1C304A"/>
<path d="M38.3323 63.1355V90.1936C38.3323 95.1677 42.3774 99.2129 47.3516 99.2129C49.0021 99.2129 50.5287 98.7349 51.8613 97.9592V139.8H87.9387V97.9592C89.2713 98.7349 90.7978 99.2129 92.4484 99.2129C97.4226 99.2129 101.468 95.1677 101.468 90.1936V63.1355C101.468 54.4341 94.3853 47.3516 85.6839 47.3516H69.9H54.1161C45.4147 47.3516 38.3323 54.4341 38.3323 63.1355ZM67.6452 135.29H56.371V130.781H67.6452V135.29ZM83.429 135.29H72.1548V130.781H83.429V135.29ZM83.429 126.271H72.1548V99.2129H67.6452V126.271H56.371V92.4484H83.429V126.271ZM85.6839 51.8613C91.9005 51.8613 96.9581 56.9189 96.9581 63.1355V90.1936C96.9581 92.6806 94.9355 94.7032 92.4484 94.7032C89.9613 94.7032 87.9387 92.6806 87.9387 90.1936V63.1355H83.429V87.9387H56.371V63.1355H51.8613V90.1936C51.8613 92.6806 49.8387 94.7032 47.3516 94.7032C44.8645 94.7032 42.8419 92.6806 42.8419 90.1936V63.1355C42.8419 56.9189 47.8995 51.8613 54.1161 51.8613H85.6839Z" fill="#1C304A"/>
<path d="M124.016 49.6065C115.315 49.6065 108.232 56.689 108.232 65.3904C108.232 71.6701 111.928 77.0885 117.252 79.6297V96.9581C117.252 100.688 120.287 103.723 124.016 103.723C127.746 103.723 130.781 100.688 130.781 96.9581V79.6297C136.104 77.0907 139.8 71.6701 139.8 65.3904C139.8 56.689 132.718 49.6065 124.016 49.6065ZM126.271 96.9581C126.271 98.2028 125.261 99.213 124.016 99.213C122.771 99.213 121.761 98.2028 121.761 96.9581V80.9939C122.499 81.0998 123.249 81.1742 124.016 81.1742C124.783 81.1742 125.534 81.0998 126.271 80.9939V96.9581ZM124.016 76.6646C117.8 76.6646 112.742 71.607 112.742 65.3904C112.742 59.1738 117.8 54.1162 124.016 54.1162C130.233 54.1162 135.29 59.1738 135.29 65.3904C135.29 71.607 130.233 76.6646 124.016 76.6646Z" fill="#F46666"/>
<path d="M126.271 108.232H121.761V112.742H126.271V108.232Z" fill="#1C304A"/>
<path d="M126.271 117.252H121.761V121.761H126.271V117.252Z" fill="#1C304A"/>
<path d="M126.271 126.271H121.761V130.781H126.271V126.271Z" fill="#1C304A"/>
<path d="M126.271 135.29H121.761V139.8H126.271V135.29Z" fill="#1C304A"/>
<path d="M22.9362 58.6258C20.6295 58.6258 18.4626 59.5232 16.8324 61.1535L15.7839 62.202L14.7354 61.1535C13.1074 59.5232 10.9382 58.6258 8.63152 58.6258C3.87381 58.6258 0 62.4996 0 67.2573C0 69.5618 0.897426 71.7309 2.52767 73.3612L15.7839 86.6174L29.0401 73.3612C30.6703 71.7332 31.5677 69.564 31.5677 67.2573C31.5677 62.4996 27.6939 58.6258 22.9362 58.6258ZM25.8517 70.1728L15.7839 80.2407L5.71602 70.1728C4.94937 69.4062 4.50968 68.3441 4.50968 67.2573C4.50968 64.9844 6.35865 63.1355 8.63152 63.1355C9.7161 63.1355 10.7804 63.5752 11.547 64.3418L15.7839 68.5787L20.0207 64.3418C20.7874 63.5752 21.8494 63.1355 22.9362 63.1355C25.2091 63.1355 27.0581 64.9844 27.0581 67.2573C27.0581 68.3441 26.6184 69.4062 25.8517 70.1728Z" fill="#F46666"/>
<path d="M18.0387 99.2129H13.529V103.723H18.0387V99.2129Z" fill="#1C304A"/>
<path d="M18.0387 90.1935H13.529V94.7032H18.0387V90.1935Z" fill="#1C304A"/>
<path d="M18.0387 108.232H13.529V112.742H18.0387V108.232Z" fill="#1C304A"/>
<path d="M18.0387 117.252H13.529V121.761H18.0387V117.252Z" fill="#1C304A"/>
<path d="M18.0387 126.271H13.529V130.781H18.0387V126.271Z" fill="#1C304A"/>
<path d="M18.0387 135.29H13.529V139.8H18.0387V135.29Z" fill="#1C304A"/>
</svg>
