<svg width="140" height="140" viewBox="0 0 140 140" fill="none" xmlns="http://www.w3.org/2000/svg">
<path d="M133.132 65.1774C136.919 65.1774 140 62.0963 140 58.3089V16.2214C140 12.434 136.919 9.35293 133.132 9.35293H65.1774V6.86848C65.1774 3.08109 62.0963 0 58.3089 0H16.2214C12.434 0 9.35293 3.08109 9.35293 6.86848V9.35293H6.86848C3.08109 9.35293 0 12.434 0 16.2214V58.3092C0 62.0966 3.08109 65.1777 6.86848 65.1777H35.073V74.8226H16.2214C12.434 74.8226 9.35293 77.9037 9.35293 81.6911V84.1756H6.86848C3.08109 84.1753 0 87.2566 0 91.0437V133.132C0 136.919 3.08109 140 6.86848 140H133.132C136.919 140 140 136.919 140 133.132V91.0437C140 87.2564 136.919 84.1753 133.132 84.1753H65.1774V81.6908C65.1774 77.9034 62.0963 74.8223 58.3089 74.8223H39.457V65.1774H133.132ZM65.1774 48.9562V13.737H133.132C134.501 13.737 135.616 14.8515 135.616 16.2214V58.3092C135.616 59.6791 134.501 60.7936 133.132 60.7936H39.4573V55.825H58.3092C62.0963 55.8247 65.1774 52.7434 65.1774 48.9562ZM6.86848 60.7934C5.49855 60.7934 4.38402 59.6788 4.38402 58.3089V16.2214C4.38402 14.8515 5.49855 13.737 6.86848 13.737H9.35293V48.9562C9.35293 52.7436 12.434 55.8247 16.2214 55.8247H35.0733V60.7934H6.86848ZM65.1774 123.779V88.5596H133.132C134.501 88.5596 135.616 89.6741 135.616 91.044V133.132C135.616 134.502 134.501 135.616 133.132 135.616H6.86848C5.49855 135.616 4.38402 134.502 4.38402 133.132V91.0437C4.38402 89.6738 5.49855 88.5593 6.86848 88.5593H9.35293V123.779C9.35293 127.566 12.434 130.647 16.2214 130.647H58.3092C62.0963 130.647 65.1774 127.566 65.1774 123.779ZM58.3089 79.2066C59.6788 79.2066 60.7934 80.3212 60.7934 81.6911V123.779C60.7934 125.149 59.6788 126.263 58.3089 126.263H16.2214C14.8515 126.263 13.737 125.149 13.737 123.779V81.6911C13.737 80.3212 14.8515 79.2066 16.2214 79.2066H58.3089ZM16.2214 51.4404C14.8515 51.4404 13.737 50.3259 13.737 48.956V6.86848C13.737 5.49855 14.8515 4.38402 16.2214 4.38402H58.3092C59.6791 4.38402 60.7936 5.49855 60.7936 6.86848V48.9562C60.7936 50.3262 59.6791 51.4407 58.3092 51.4407H16.2214V51.4404Z" fill="#1C304A"/>
<path d="M51.1481 25.5741C51.1481 17.9192 44.9201 11.6911 37.2652 11.6911C29.6103 11.6911 23.3822 17.9192 23.3822 25.5741V30.2504C23.3822 37.9053 29.6103 44.1334 37.2652 44.1334C40.3033 44.1334 43.1145 43.1498 45.4029 41.4879L47.4062 43.4911C47.8341 43.919 48.3952 44.1331 48.956 44.1331C49.5168 44.1331 50.0779 43.9193 50.5058 43.4911C51.362 42.6349 51.362 41.247 50.5058 40.3911L48.5026 38.3879C50.1646 36.0995 51.1481 33.2883 51.1481 30.2501V25.5741ZM46.7641 30.2504C46.7641 32.077 46.2449 33.7835 45.3477 35.233L43.4913 33.3766C42.6352 32.5205 41.2472 32.5205 40.3914 33.3766C39.5352 34.2327 39.5352 35.6207 40.3914 36.4766L42.2477 38.3329C40.798 39.2298 39.0915 39.7493 37.2652 39.7493C32.0275 39.7493 27.7662 35.4881 27.7662 30.2504V25.5741C27.7662 20.3364 32.0275 16.0751 37.2652 16.0751C42.5029 16.0751 46.7641 20.3364 46.7641 25.5741V30.2504Z" fill="#F46666"/>
<path d="M51.083 116.233L44.7325 90.8305C44.0967 88.2889 41.8231 86.5134 39.203 86.5134H35.327C32.707 86.5134 30.433 88.2886 29.7981 90.8307L23.4475 116.233C23.1539 117.407 23.8681 118.597 25.0425 118.891C26.2164 119.185 27.4069 118.471 27.7009 117.296L29.0396 111.942H45.4915L46.8303 117.296C47.0794 118.292 47.973 118.957 48.9552 118.957C49.131 118.957 49.3101 118.936 49.4886 118.891C50.6628 118.597 51.3767 117.407 51.083 116.233ZM30.135 107.557L34.0509 91.8939C34.1977 91.3073 34.7222 90.8977 35.327 90.8977H39.203C39.8079 90.8977 40.3323 91.3071 40.4791 91.8939L44.395 107.557H30.135Z" fill="#F46666"/>
<path d="M116.764 21.0438H74.6763C73.4658 21.0438 72.4842 22.0251 72.4842 23.2359C72.4842 24.4467 73.4656 25.4281 74.6763 25.4281H116.764C117.975 25.4281 118.956 24.4467 118.956 23.2359C118.956 22.0251 117.975 21.0438 116.764 21.0438Z" fill="#1C304A"/>
<path d="M126.117 39.7496H74.6763C73.4658 39.7496 72.4842 40.731 72.4842 41.9418C72.4842 43.1526 73.4656 44.1339 74.6763 44.1339H126.117C127.327 44.1339 128.309 43.1526 128.309 41.9418C128.309 40.731 127.328 39.7496 126.117 39.7496Z" fill="#1C304A"/>
<path d="M126.117 49.1023H74.6763C73.4658 49.1023 72.4842 50.0837 72.4842 51.2944C72.4842 52.5052 73.4656 53.4866 74.6763 53.4866H126.117C127.327 53.4866 128.309 52.5052 128.309 51.2944C128.309 50.0837 127.328 49.1023 126.117 49.1023Z" fill="#1C304A"/>
<path d="M84.0293 30.3967H74.6763C73.4658 30.3967 72.4842 31.378 72.4842 32.5888C72.4842 33.7996 73.4656 34.781 74.6763 34.781H84.0293C85.2398 34.781 86.2214 33.7996 86.2214 32.5888C86.2214 31.378 85.2398 30.3967 84.0293 30.3967Z" fill="#1C304A"/>
<path d="M126.117 30.3967H93.3819C92.1714 30.3967 91.1898 31.378 91.1898 32.5888C91.1898 33.7996 92.1711 34.781 93.3819 34.781H126.117C127.327 34.781 128.309 33.7996 128.309 32.5888C128.309 31.378 127.328 30.3967 126.117 30.3967Z" fill="#1C304A"/>
<path d="M116.764 95.8663H74.6763C73.4658 95.8663 72.4842 96.8477 72.4842 98.0585C72.4842 99.2693 73.4656 100.251 74.6763 100.251H116.764C117.975 100.251 118.956 99.2693 118.956 98.0585C118.956 96.8477 117.975 95.8663 116.764 95.8663Z" fill="#1C304A"/>
<path d="M126.117 114.572H74.6763C73.4658 114.572 72.4842 115.553 72.4842 116.764C72.4842 117.975 73.4656 118.956 74.6763 118.956H126.117C127.327 118.956 128.309 117.975 128.309 116.764C128.309 115.554 127.328 114.572 126.117 114.572Z" fill="#1C304A"/>
<path d="M126.117 123.925H74.6763C73.4658 123.925 72.4842 124.906 72.4842 126.117C72.4842 127.328 73.4656 128.309 74.6763 128.309H126.117C127.327 128.309 128.309 127.328 128.309 126.117C128.309 124.906 127.328 123.925 126.117 123.925Z" fill="#1C304A"/>
<path d="M84.0293 105.219H74.6763C73.4658 105.219 72.4842 106.201 72.4842 107.411C72.4842 108.622 73.4656 109.604 74.6763 109.604H84.0293C85.2398 109.604 86.2214 108.622 86.2214 107.411C86.2214 106.201 85.2398 105.219 84.0293 105.219Z" fill="#1C304A"/>
<path d="M126.117 105.219H93.3819C92.1714 105.219 91.1898 106.201 91.1898 107.411C91.1898 108.622 92.1711 109.604 93.3819 109.604H126.117C127.327 109.604 128.309 108.622 128.309 107.411C128.309 106.201 127.328 105.219 126.117 105.219Z" fill="#1C304A"/>
</svg>
