<svg width="137" height="137" viewBox="0 0 137 137" fill="none" xmlns="http://www.w3.org/2000/svg">
<path d="M112.504 96.121L116.465 92.159L113.341 89.0345L109.379 92.9965L105.209 88.8268C108.559 82.7966 110.484 75.8715 110.484 68.5C110.484 67.8702 110.418 67.2581 110.389 66.635C120.772 64.1933 128.161 55.0011 128.161 44.1935H123.742C123.742 52.7273 118.045 60.0259 109.958 62.2002C106.902 42.0347 89.503 26.5161 68.5 26.5161C67.8702 26.5161 67.2581 26.5824 66.635 26.6111C64.1933 16.2278 55.0011 8.83868 44.1935 8.83868V13.258C52.7273 13.258 60.0259 18.9546 62.2002 27.042C42.0347 30.098 26.5161 47.497 26.5161 68.5C26.5161 69.1297 26.5824 69.7418 26.6111 70.3649C16.2278 72.8066 8.83868 81.9989 8.83868 92.8064H13.258C13.258 84.2727 18.9546 76.9741 27.042 74.7998C30.098 94.9653 47.497 110.484 68.5 110.484C75.8715 110.484 82.7966 108.559 88.8246 105.209L92.9943 109.379L89.0323 113.341L92.1568 116.465L96.1187 112.504L117.223 133.608C119.411 135.796 122.321 137 125.415 137C131.803 137 137 131.803 137 125.417C137 122.323 135.796 119.413 133.608 117.226L112.504 96.121ZM68.5 30.9355C87.3485 30.9355 102.951 44.9006 105.618 63.02L101.263 63.7448C98.9471 47.718 85.1587 35.3548 68.5 35.3548C68.3873 35.3548 68.2768 35.3703 68.1641 35.3725L67.4349 30.9907C67.7929 30.9797 68.1398 30.9355 68.5 30.9355ZM68.5 39.7742C84.339 39.7742 97.2258 52.661 97.2258 68.5C97.2258 84.339 84.339 97.2258 68.5 97.2258C52.661 97.2258 39.7742 84.339 39.7742 68.5C39.7742 52.661 52.661 39.7742 68.5 39.7742ZM30.9355 68.5C30.9355 49.6514 44.9006 34.0489 63.02 31.3818L63.7448 35.7371C47.718 38.0528 35.3548 51.8412 35.3548 68.5C35.3548 68.6127 35.3703 68.7232 35.3725 68.8359L30.9907 69.565C30.9797 69.2071 30.9355 68.8602 30.9355 68.5ZM68.5 106.064C49.6514 106.064 34.0489 92.0993 31.3818 73.98L35.7371 73.2552C38.0528 89.282 51.8412 101.645 68.5 101.645C86.7762 101.645 101.645 86.7762 101.645 68.5C101.645 68.3873 101.63 68.2768 101.627 68.1641L106.009 67.4349C106.02 67.7929 106.064 68.1398 106.064 68.5C106.065 89.2135 89.2135 106.064 68.5 106.064ZM92.6518 102.785C96.5806 100.01 100.01 96.5806 102.785 92.6518L106.255 96.121L96.121 106.255L92.6518 102.785ZM125.417 132.581C123.503 132.581 121.702 131.836 120.35 130.484L99.2454 109.379L109.379 99.2454L130.484 120.35C131.836 121.702 132.581 123.503 132.581 125.417C132.581 129.368 129.368 132.581 125.417 132.581Z" fill="#1C304A"/>
<path d="M117.113 39.7742C128.079 39.7742 137 30.8537 137 19.8871C137 8.92044 128.079 -3.05176e-05 117.113 -3.05176e-05C106.146 -3.05176e-05 97.2258 8.92044 97.2258 19.8871C97.2258 30.8537 106.146 39.7742 117.113 39.7742ZM123.742 33.8412C121.729 34.8002 119.486 35.3548 117.113 35.3548C114.74 35.3548 112.497 34.8002 110.484 33.8412V30.9355C110.484 27.2806 113.458 24.3064 117.113 24.3064C120.768 24.3064 123.742 27.2806 123.742 30.9355V33.8412ZM112.694 15.4677C112.694 13.0304 114.676 11.0484 117.113 11.0484C119.55 11.0484 121.532 13.0304 121.532 15.4677C121.532 17.905 119.55 19.8871 117.113 19.8871C114.676 19.8871 112.694 17.905 112.694 15.4677ZM117.113 4.41932C125.64 4.41932 132.581 11.3599 132.581 19.8871C132.581 24.1009 130.881 27.9215 128.139 30.7145C128.064 27 126.166 23.7231 123.287 21.7763C124.926 20.1721 125.952 17.9403 125.952 15.4677C125.952 10.5932 121.987 6.629 117.113 6.629C112.238 6.629 108.274 10.5932 108.274 15.4677C108.274 17.9403 109.299 20.1721 110.939 21.7763C108.058 23.7253 106.159 27 106.087 30.7145C103.344 27.9215 101.645 24.1009 101.645 19.8871C101.645 11.3599 108.586 4.41932 117.113 4.41932Z" fill="#1C304A"/>
<path d="M19.8871 39.7742C30.8537 39.7742 39.7742 30.8537 39.7742 19.8871C39.7742 8.92047 30.8537 0 19.8871 0C8.92047 0 0 8.92047 0 19.8871C0 30.8537 8.92047 39.7742 19.8871 39.7742ZM26.5161 33.8412C24.5031 34.8002 22.2603 35.3548 19.8871 35.3548C17.5139 35.3548 15.2711 34.8002 13.2581 33.8412V30.9355C13.2581 27.2807 16.2323 24.3065 19.8871 24.3065C23.5419 24.3065 26.5161 27.2807 26.5161 30.9355V33.8412ZM15.4677 15.4677C15.4677 13.0305 17.4498 11.0484 19.8871 11.0484C22.3244 11.0484 24.3065 13.0305 24.3065 15.4677C24.3065 17.905 22.3244 19.8871 19.8871 19.8871C17.4498 19.8871 15.4677 17.905 15.4677 15.4677ZM19.8871 4.41935C28.4142 4.41935 35.3548 11.36 35.3548 19.8871C35.3548 24.101 33.6556 27.9215 30.9134 30.7145C30.8383 27 28.9401 23.7231 26.0609 21.7764C27.7005 20.1721 28.7258 17.9404 28.7258 15.4677C28.7258 10.5932 24.7616 6.62903 19.8871 6.62903C15.0125 6.62903 11.0484 10.5932 11.0484 15.4677C11.0484 17.9404 12.0737 20.1721 13.7133 21.7764C10.834 23.7253 8.93594 27 8.86081 30.7145C6.1186 27.9215 4.41935 24.101 4.41935 19.8871C4.41935 11.36 11.36 4.41935 19.8871 4.41935Z" fill="#1C304A"/>
<path d="M19.8871 97.2257C8.92047 97.2257 0 106.146 0 117.113C0 128.079 8.92047 137 19.8871 137C30.8537 137 39.7742 128.079 39.7742 117.113C39.7742 106.146 30.8537 97.2257 19.8871 97.2257ZM26.5161 131.067C24.5031 132.026 22.2603 132.581 19.8871 132.581C17.5139 132.581 15.2711 132.026 13.2581 131.067V128.161C13.2581 124.506 16.2323 121.532 19.8871 121.532C23.5419 121.532 26.5161 124.506 26.5161 128.161V131.067ZM15.4677 112.693C15.4677 110.256 17.4498 108.274 19.8871 108.274C22.3244 108.274 24.3065 110.256 24.3065 112.693C24.3065 115.131 22.3244 117.113 19.8871 117.113C17.4498 117.113 15.4677 115.131 15.4677 112.693ZM30.9134 127.94C30.8383 124.226 28.9401 120.949 26.0609 119.002C27.7005 117.398 28.7258 115.166 28.7258 112.693C28.7258 107.819 24.7616 103.855 19.8871 103.855C15.0125 103.855 11.0484 107.819 11.0484 112.693C11.0484 115.166 12.0737 117.398 13.7133 119.002C10.834 120.951 8.93594 124.226 8.86081 127.94C6.1186 125.147 4.41935 121.327 4.41935 117.113C4.41935 108.586 11.36 101.645 19.8871 101.645C28.4142 101.645 35.3548 108.586 35.3548 117.113C35.3548 121.327 33.6556 125.147 30.9134 127.94Z" fill="#1C304A"/>
<path d="M44.1935 64.0806V75.129V77.3387V79.5484H92.8064V77.3387V75.129V55.2419H79.5484V75.129H75.129V46.4032H61.871V75.129H57.4516V64.0806H44.1935ZM83.9677 59.6613H88.3871V75.129H83.9677V59.6613ZM66.2903 50.8226H70.7097V75.129H66.2903V50.8226ZM53.0323 75.129H48.6129V68.5H53.0323V75.129Z" fill="#F46666"/>
</svg>
